PathFileType	4	(X/Y/Z)	C:\Users\86182\Documents\cortex\Trimmed_M3_L12.trc
DataRate	CameraRate	NumFrames	NumMarkers	Units	OrigDataRate	OrigDataStartFrame	OrigNumFrames
100.00	100.00	       99	2	mm	100.00	181	       901
Frame#	Time	gripper			box			
		X1	Y1	Z1	X2	Y2	Z2	

181	1.800	275.22357	148.80386	216.53105	277.23798	146.96576	80.86330	
182	1.810	275.41183	148.83786	216.76068	277.04089	146.92052	81.35271	
183	1.820	274.88278	148.93536	217.38667	277.14932	147.04913	81.82651	
184	1.830	274.68472	149.11841	218.03833	277.32697	147.04607	82.21942	
185	1.840	274.79861	149.06557	218.47020	277.46143	147.03824	82.67883	
186	1.850	274.55911	149.01196	218.67496	276.93219	147.00417	83.14417	
187	1.860	274.50806	148.92780	219.20493	276.87402	146.91814	83.49050	
188	1.870	274.32196	148.99287	219.73624	276.78598	146.92941	83.75267	
189	1.880	274.19086	148.92529	220.04588	276.87296	146.84137	84.22025	
190	1.890	274.02731	148.86829	220.48982	276.85431	146.93346	84.79433	
191	1.900	274.46866	148.72185	221.01390	276.78641	146.87453	85.32568	
192	1.910	274.16507	148.82288	221.42249	276.78912	146.91661	85.70695	
193	1.920	274.21219	148.83022	221.73395	276.80948	146.84711	85.96639	
194	1.930	273.86453	148.82994	222.21260	276.83078	146.84805	86.24576	
195	1.940	274.07010	148.97539	222.81009	276.91818	146.80835	86.85319	
196	1.950	274.67764	148.76077	223.07199	276.80673	146.94156	87.54097	
197	1.960	274.13324	148.79573	223.59132	276.83820	146.85898	88.00696	
198	1.970	274.32919	148.84312	224.00552	276.92368	146.91016	88.21301	
199	1.980	274.23703	149.03273	224.52594	276.95807	146.94159	88.46851	
200	1.990	274.29044	148.99126	224.88838	276.92255	147.01508	89.00062	
201	2.000	273.93808	148.93031	225.30901	276.89722	146.95305	89.73949	
202	2.010	274.36255	148.88010	225.77368	276.80151	147.00810	90.09053	
203	2.020	274.29535	149.05695	226.15601	276.91626	146.89050	90.36870	
204	2.030	274.10715	149.04919	226.62271	277.08096	146.90387	90.56557	
205	2.040	274.17966	148.94621	227.00008	276.82040	146.96500	91.10503	
206	2.050	274.21695	149.01816	227.45874	276.65656	146.92342	91.49118	
207	2.060	274.27228	148.91466	227.76605	276.75558	146.99619	92.05815	
208	2.070	274.15344	149.03581	228.25362	276.85712	147.00145	92.49850	
209	2.080	274.10562	149.03778	228.65950	277.14828	146.87852	92.83298	
210	2.090	274.00995	149.07364	229.14217	276.89624	146.90601	93.16847	
211	2.100	274.27570	149.09105	229.61613	276.80017	146.99101	93.66539	
212	2.110	274.10995	149.06935	230.03009	276.85007	146.98062	94.15079	
213	2.120	274.08295	149.14081	230.56693	277.03632	147.02901	94.73081	
214	2.130	273.94940	149.14241	230.93906	276.82797	147.05954	95.08595	
215	2.140	274.11301	149.12914	231.27235	276.87811	147.03015	95.47752	
216	2.150	274.09805	149.18205	231.84979	276.70917	146.97934	96.05032	
217	2.160	274.04639	149.15434	232.19121	276.72217	146.97975	96.31114	
218	2.170	273.94870	149.16499	232.65242	276.75818	147.06378	96.63538	
219	2.180	274.01273	149.20322	233.03973	276.64819	147.21655	97.24280	
220	2.190	274.11978	149.18420	233.43103	276.64886	147.13799	97.61213	
221	2.200	273.92172	149.17139	233.87335	276.46375	147.07585	98.15508	
222	2.210	273.96161	149.21140	234.16028	276.48419	147.20604	98.46759	
223	2.220	273.82620	149.29468	234.62862	276.50702	147.11743	98.65296	
224	2.230	273.89972	149.29897	235.11264	276.51114	147.18697	99.00137	
225	2.240	273.70901	149.30981	235.51166	276.64005	147.19080	99.83363	
226	2.250	273.98181	149.24197	235.80025	276.40369	147.18690	100.22920	
227	2.260	273.97650	149.23035	236.33727	276.43671	147.21341	100.49703	
228	2.270	273.97116	149.33031	236.88089	276.66556	147.19667	100.84343	
229	2.280	274.05798	149.34706	237.21315	276.57721	147.25815	101.32397	
230	2.290	273.98425	149.32303	237.64798	276.66965	147.33963	101.84874	
231	2.300	274.04694	149.25362	238.14478	276.52405	147.34851	102.40178	
232	2.310	273.89975	149.42975	238.71591	276.78732	147.19594	102.84840	
233	2.320	274.17114	149.41646	239.05479	276.87485	147.26738	103.14429	
234	2.330	274.09378	149.37604	239.63385	276.73795	147.34590	103.53522	
235	2.340	274.15244	149.35336	239.98846	276.48517	147.50737	104.22226	
236	2.350	274.12360	149.42438	240.35867	276.60883	147.43938	104.86140	
237	2.360	274.17075	149.46982	240.84035	276.70334	147.52657	105.01086	
238	2.370	273.91370	149.53366	241.41264	276.60379	147.57153	105.29307	
239	2.380	273.98975	149.53110	241.64168	276.52097	147.43677	105.70798	
240	2.390	273.99918	149.47028	241.95233	276.33517	147.40170	106.34740	
241	2.400	274.03287	149.43695	242.48027	276.42667	147.52536	106.73708	
242	2.410	273.91974	149.43810	242.93483	276.48767	147.51070	107.09827	
243	2.420	273.92722	149.53822	243.36841	276.56903	147.56647	107.29131	
244	2.430	273.97836	149.61115	243.74619	276.20987	147.49001	107.91145	
245	2.440	273.91467	149.58699	244.14589	276.20096	147.65320	108.32790	
246	2.450	273.93503	149.41278	244.50211	276.27475	147.56938	108.68325	
247	2.460	273.92896	149.49992	244.89932	276.39349	147.56862	109.10523	
248	2.470	274.16742	149.55275	245.57491	276.66998	147.48975	109.65055	
249	2.480	274.00797	149.47261	245.96739	276.45483	147.49866	110.03581	
250	2.490	273.87302	149.54103	246.24631	276.35861	147.59691	110.52626	
251	2.500	274.13815	149.43938	246.66374	276.46796	147.50104	110.88016	
252	2.510	274.15955	149.37572	247.30984	276.57709	147.48965	111.30436	
253	2.520	274.08884	149.43736	247.73103	276.75833	147.54756	111.80834	
254	2.530	273.92084	149.42809	248.03424	276.64420	147.53627	112.08044	
255	2.540	273.96826	149.44321	248.51337	276.36081	147.53221	112.62476	
256	2.550	273.75107	149.41309	248.95062	276.44177	147.58910	113.10694	
257	2.560	273.95871	149.30174	249.21391	276.30951	147.61629	113.37628	
258	2.570	273.83817	149.26155	249.77574	276.60706	147.65016	113.76159	
259	2.580	273.80981	149.38684	250.34837	276.35980	147.44588	114.23092	
260	2.590	273.70319	149.40366	250.64246	276.23358	147.35716	114.82888	
261	2.600	273.65448	149.36369	250.83218	276.17004	147.45268	115.10154	
262	2.610	273.45425	149.21844	251.29448	275.97162	147.45253	115.53442	
263	2.620	273.81674	149.27948	251.89169	275.95880	147.41751	115.81245	
264	2.630	273.78943	149.34521	252.28043	276.07977	147.48640	116.30144	
265	2.640	273.43411	149.25296	252.75819	275.83136	147.43468	116.90846	
266	2.650	273.51578	149.21706	253.04585	275.80646	147.37120	117.30264	
267	2.660	273.68076	149.27505	253.42838	275.86099	147.57622	117.62693	
268	2.670	273.56070	149.32985	253.84470	275.84494	147.49959	118.12071	
269	2.680	273.51941	149.31227	254.50902	275.94809	147.50372	118.42495	
270	2.690	273.74197	149.28522	254.88705	275.88602	147.39566	119.08575	
271	2.700	273.69604	149.25989	255.25867	275.97873	147.41011	119.43753	
272	2.710	273.61270	149.29277	255.65341	275.94760	147.54633	119.95297	
273	2.720	273.40826	149.39496	256.10034	275.83585	147.50769	120.38064	
274	2.730	273.70184	149.37112	256.72119	275.76611	147.36517	120.68929	
275	2.740	273.79691	149.25084	257.10883	275.77914	147.45241	121.16310	
276	2.750	273.79498	149.26498	257.36499	275.85275	147.47470	121.56230	
277	2.760	273.64081	149.46133	257.83893	276.10068	147.44719	122.09550	
278	2.770	273.48416	149.42116	258.25266	275.70441	147.55089	122.54422	
279	2.780	273.67783	149.43625	258.73196	275.53363	147.55254	122.85789	
